<svg width="18" height="20" viewBox="0 0 18 20" fill="none" xmlns="http://www.w3.org/2000/svg">
<path d="M17.0369 2.72492L9.22442 0.41723C9.10778 0.382768 8.98458 0.375614 8.86466 0.396384C8.74466 0.417153 8.6313 0.46523 8.53356 0.536845C8.43591 0.608461 8.35653 0.701537 8.30185 0.808691C8.24716 0.915845 8.21872 1.03408 8.21872 1.154V5.75208C8.21841 5.76385 8.21841 5.77554 8.21872 5.78731V11.5638C7.41895 10.8598 6.39802 10.4474 5.32661 10.3955C4.25513 10.3435 3.19802 10.6552 2.33192 11.2785C1.46583 11.9017 0.843173 12.7987 0.568095 13.8196C0.292938 14.8405 0.382002 15.9235 0.820361 16.8875C1.25864 17.8516 2.01974 18.6383 2.97638 19.1163C3.93302 19.5942 5.02731 19.7345 6.0763 19.5135C7.12536 19.2925 8.06552 18.7238 8.73989 17.9023C9.41419 17.0808 9.78177 16.0564 9.78122 15.0002V6.80323L16.5879 8.81385C16.7046 8.84831 16.8279 8.85546 16.9478 8.83469C17.0677 8.81392 17.1811 8.76585 17.2788 8.69423C17.3765 8.62261 17.4559 8.52954 17.5106 8.42238C17.5652 8.31523 17.5937 8.197 17.5937 8.07708V3.46169C17.5937 3.29623 17.5396 3.13523 17.4393 3.00254C17.339 2.86977 17.1979 2.77246 17.0369 2.72492Z" fill="#0033B6"/>
</svg>
