<svg width="24" height="18" viewBox="0 0 24 18" fill="none" xmlns="http://www.w3.org/2000/svg">
<path d="M22.8131 4.14753C22.5896 3.96384 22.3181 3.84568 22.0297 3.80653C21.7412 3.76745 21.4474 3.80899 21.1818 3.92637L16.242 6.08814L13.3658 0.990604C13.2305 0.750758 13.0324 0.550911 12.7923 0.411758C12.5521 0.272604 12.2786 0.199219 11.9999 0.199219C11.7212 0.199219 11.4477 0.272604 11.2075 0.411758C10.9673 0.550911 10.7694 0.750758 10.6341 0.990604L7.75773 6.08807L2.81719 3.92599C2.55133 3.80968 2.25781 3.76876 1.96969 3.80783C1.68148 3.84691 1.41008 3.96437 1.18609 4.14707C0.962031 4.32976 0.794297 4.57037 0.701562 4.84184C0.608906 5.11337 0.595077 5.40491 0.661562 5.68376L3.14648 16.1004C3.19375 16.3021 3.28226 16.4921 3.40664 16.6589C3.53109 16.8258 3.68867 16.9659 3.86992 17.0708C4.05211 17.1763 4.25398 17.2448 4.46359 17.2721C4.67312 17.2994 4.88617 17.2849 5.09 17.2295C9.61047 16.0008 14.3845 16.0003 18.9052 17.2282C19.109 17.2835 19.3219 17.2979 19.5314 17.2707C19.7409 17.2434 19.9427 17.175 20.1248 17.0695C20.3059 16.9647 20.4634 16.8247 20.5879 16.6579C20.7123 16.4912 20.8008 16.3013 20.8482 16.0998L23.3373 5.6846C23.4051 5.40576 23.3919 5.11376 23.2991 4.84199C23.2065 4.57022 23.038 4.32961 22.8131 4.14753ZM15.9019 12.7033C15.8912 12.8038 15.8606 12.9013 15.8117 12.9901C15.7627 13.079 15.6966 13.1575 15.6168 13.221C15.537 13.2846 15.4453 13.3321 15.3469 13.3607C15.2484 13.3894 15.1452 13.3986 15.0432 13.3878C13.0199 13.1787 10.9799 13.1787 8.95664 13.3878C8.75094 13.4085 8.54539 13.3479 8.38492 13.2196C8.22453 13.0912 8.12227 12.9055 8.10062 12.7031C8.07898 12.5006 8.13977 12.298 8.26953 12.1396C8.39937 11.9811 8.58766 11.8798 8.7932 11.8578C10.9252 11.6374 13.0747 11.6374 15.2066 11.8578C15.3087 11.8685 15.4076 11.8987 15.4977 11.9468C15.5879 11.9951 15.6676 12.0603 15.7321 12.1388C15.7966 12.2173 15.8449 12.3076 15.874 12.4045C15.9031 12.5013 15.9126 12.6028 15.9019 12.7033Z" fill="#543700"/>
</svg>
